<svg width="219" height="109" viewBox="0 0 219 109" fill="none" xmlns="http://www.w3.org/2000/svg">
<path d="M193.533 54.409C193.688 53.107 193.801 51.7856 193.801 50.4413C193.801 32.9423 179.616 18.7636 162.117 18.7636C154.612 18.7636 147.729 21.3822 142.301 25.7376C133.205 12.3283 117.854 3.50154 100.425 3.50154C76.8509 3.50154 57.0437 19.6175 51.4264 41.4297C47.0079 39.264 42.0515 38.0139 36.7928 38.0139C18.3875 38.0139 3.46606 52.9222 3.46606 71.3186C3.46606 89.7138 18.3875 104.628 36.7928 104.628C48.3864 104.628 183.799 104.628 189.638 104.628C203.61 104.628 214.931 93.3094 214.931 79.3433C214.931 66.7131 205.645 56.2872 193.533 54.409" fill="#DCF0F4"/>
<path d="M193.533 54.409C193.688 53.107 193.801 51.7856 193.801 50.4413C193.801 32.9423 179.617 18.7636 162.117 18.7636C158.615 18.7636 155.259 19.3542 152.115 20.4062C164.704 24.595 173.792 36.4474 173.792 50.4413C173.792 51.7856 173.683 53.107 173.522 54.409C185.635 56.2872 194.925 66.7131 194.925 79.3433C194.925 93.3094 183.601 104.628 169.628 104.628C180.773 104.628 188.349 104.628 189.638 104.628C203.61 104.628 214.931 93.3094 214.931 79.3433C214.931 66.7131 205.645 56.2872 193.533 54.409" fill="#C1DEE8"/>
<path d="M127.72 31.5835C131.826 29.6715 138.831 26.9357 142.301 25.7376C140.578 23.1468 137.784 20.0052 136.994 19.1888C127.79 9.53581 114.823 3.50154 100.425 3.50154C97.0122 3.50154 93.6985 3.87833 90.4744 4.51969C103.668 7.18536 120.242 14.6353 127.72 31.5835" fill="#C1DEE8"/>
<path d="M38.752 38.0757C40.9328 55.3379 52.2338 65.9631 52.2338 65.9631C52.2338 65.9631 48.6887 55.3946 51.4265 41.4298C47.5605 39.5371 43.2836 38.339 38.752 38.0757" fill="#C1DEE8"/>
<path d="M100.425 6.94022C116.059 6.94022 130.65 14.6872 139.458 27.6617C139.993 28.4601 140.837 28.9927 141.786 29.134C142.735 29.2802 143.703 29.0169 144.453 28.4166C146.686 26.6242 149.16 25.1941 151.798 24.1469C153.563 23.4536 154.432 21.4632 153.739 19.6937C153.04 17.9291 151.043 17.0606 149.277 17.7539C147.107 18.6127 145.029 19.6792 143.071 20.9486C132.856 7.81351 117.164 0.0713031 100.425 0.0713031C77.0871 0.0713031 56.5764 14.9662 49.2314 36.7639C41.0885 33.8047 31.9968 33.876 23.9153 36.8956C22.1357 37.5611 21.234 39.5419 21.8996 41.3162C22.5653 43.0953 24.5478 44.0012 26.3227 43.3356C33.1108 40.7932 40.7156 40.8487 47.5839 43.5241C45.6202 56.8295 48.83 66.6189 48.9764 67.0538C49.4532 68.4923 50.7938 69.3933 52.2288 69.3933C52.5876 69.3933 52.9605 69.3365 53.3193 69.2193C55.1131 68.6239 56.095 66.6757 55.4955 64.8784C55.4671 64.7794 52.3092 54.9658 54.7826 42.2075C60.1641 21.4341 78.9233 6.94022 100.425 6.94022V6.94022ZM36.7928 108.068H189.638C205.48 108.068 218.371 95.1828 218.371 79.3434C218.371 66.1998 209.644 55.0359 197.219 51.6866C197.238 51.2614 197.243 50.8471 197.243 50.4413C197.243 40.9768 193.533 32.0968 186.787 25.4441C185.431 24.1143 183.256 24.1288 181.925 25.478C180.589 26.8271 180.607 29.0023 181.957 30.337C187.382 35.6828 190.364 42.8259 190.364 50.4413C190.364 51.503 190.285 52.6299 190.119 53.979C189.883 55.8246 191.163 57.5227 192.999 57.8054C203.714 59.4661 211.494 68.5249 211.494 79.3434C211.494 91.3939 201.69 101.188 189.638 101.188H36.7928C20.3136 101.188 6.90727 87.7897 6.90727 71.3186C6.90727 63.3397 10.0135 55.8391 15.6638 50.201C16.9997 48.8554 16.9997 46.6813 15.6638 45.3406C14.3186 43.9963 12.1377 43.9963 10.8017 45.3406C3.85314 52.2759 0.029541 61.505 0.029541 71.3186C0.029541 91.5823 16.523 108.068 36.7928 108.068ZM158.676 18.7636C158.676 16.8673 160.215 15.3286 162.117 15.3286C166.583 15.3286 170.935 16.1596 175.056 17.7877C176.826 18.4907 177.685 20.486 176.982 22.2507C176.454 23.5998 175.156 24.4211 173.792 24.4211C173.366 24.4211 172.937 24.345 172.526 24.1807C169.213 22.8642 165.71 22.1987 162.117 22.1987C160.215 22.1987 158.676 20.6648 158.676 18.7636Z" fill="#142B3D"/>
</svg>
