<svg width="228" height="145" viewBox="0 0 228 145" fill="none" xmlns="http://www.w3.org/2000/svg">
<path d="M185.118 33.6969C179.028 33.6969 173.287 35.1222 168.139 37.5994C160.103 17.6365 140.563 3.54838 117.711 3.54838C93.5782 3.54838 73.1312 19.2743 66.0255 41.0248C52.1646 41.0526 40.1876 49.0025 34.3242 60.5662C33.0735 60.3874 31.8082 60.2546 30.5007 60.2546C16.1371 60.2546 4.50098 71.8896 4.50098 86.247C4.50098 100.595 16.1371 112.23 30.5007 112.23C36.6614 112.23 172.828 112.23 185.118 112.23C206.822 112.23 224.405 94.6499 224.405 72.9658C224.405 51.2817 206.822 33.6969 185.118 33.6969Z" fill="#DCF0F4"/>
<path d="M155.91 39.8074C158.738 38.4535 165.01 37.5331 168.14 37.5995C167.717 36.5705 166.822 34.5702 166.581 34.0883C157.759 16.0144 139.185 3.54847 117.711 3.54847C115.487 3.54847 113.312 3.72842 111.161 3.98327C131.113 6.39892 148.659 21.8036 155.91 39.8074" fill="#C1DEE8"/>
<path d="M185.118 33.6969C182.859 33.6969 180.623 33.8902 178.46 34.273C197.07 37.3578 211.281 53.4848 211.281 72.9658C211.281 94.6499 193.686 112.23 171.982 112.23C178.593 112.23 183.269 112.23 185.118 112.23C206.822 112.23 224.405 94.6499 224.405 72.9658C224.405 51.2817 206.822 33.6969 185.118 33.6969Z" fill="#C1DEE8"/>
<path d="M211.281 102.213C208.018 96.5606 201.916 92.7536 194.919 92.7536C192.03 92.7536 189.324 93.4142 186.882 94.5605C186.653 75.1024 170.834 59.3971 151.294 59.3971C134.581 59.3971 120.575 70.9414 116.768 86.4873C114.073 85.3786 111.137 84.7614 108.043 84.7614C95.3908 84.7614 85.1431 95.0086 85.1431 107.653C85.1431 109.224 85.3002 110.748 85.6023 112.23C127.052 112.23 177.843 112.23 185.118 112.23C195.185 112.23 204.332 108.421 211.281 102.213" fill="#C1DEE8"/>
<path d="M52.4907 43.7426C54.5572 59.6847 69.0102 65.4363 69.0102 65.4363C69.0102 65.4363 61.1795 55.7737 66.0254 41.025C61.2157 41.0286 56.6478 42.0154 52.4907 43.7426" fill="#C1DEE8"/>
<path d="M194.919 102.788C192.03 102.788 189.324 103.454 186.882 104.605C186.653 85.1431 170.834 69.4365 151.294 69.4365C134.581 69.4365 120.575 80.987 116.768 96.5329C114.073 95.4241 111.137 94.8009 108.043 94.8009C95.3908 94.8009 85.1431 105.048 85.1431 117.693C85.1431 130.338 95.3908 140.585 108.043 140.585C115.826 140.585 187.076 140.585 194.919 140.585C205.36 140.585 213.819 132.12 213.819 121.685C213.819 111.253 205.36 102.788 194.919 102.788Z" fill="#44A6BB"/>
<path d="M175.342 104.605C182.435 102.788 186.314 104.543 186.882 104.605C186.882 104.605 186.882 103.736 186.786 103.114C185.795 84.3557 170.327 69.4365 151.294 69.4365C149.3 69.4365 147.342 69.6117 145.433 69.9269C162.254 72.6312 175.136 87.0732 175.342 104.605" fill="#388BA9"/>
<path d="M194.919 102.788C192.913 102.788 190.991 103.124 189.191 103.709C196.792 106.162 202.278 113.282 202.278 121.685C202.278 132.12 193.819 140.585 183.378 140.585C189.106 140.585 193.336 140.585 194.919 140.585C205.36 140.585 213.819 132.12 213.819 121.685C213.819 111.253 205.36 102.788 194.919 102.788" fill="#388BA9"/>
<path d="M110.69 94.9713C107.693 110.431 120.297 116.448 120.297 116.448C120.297 116.448 113.59 110.181 116.768 96.533C114.871 95.7394 112.829 95.2165 110.69 94.9713" fill="#388BA9"/>
<path d="M0.761963 42.3317C0.761963 44.2231 2.29544 45.7655 4.19392 45.7655H24.0197C25.9218 45.7655 27.4662 44.2231 27.4662 42.3317C27.4662 40.4342 25.9218 38.8966 24.0197 38.8966H4.19392C2.29544 38.8966 0.761963 40.4342 0.761963 42.3317ZM19.7152 27.0213C19.7152 28.9224 21.2487 30.46 23.146 30.46H57.0467C58.9439 30.46 60.4786 28.9224 60.4786 27.0213C60.4786 25.1286 58.9439 23.591 57.0467 23.591H23.146C21.2487 23.591 19.7152 25.1286 19.7152 27.0213ZM68.2127 5.91206H55.9348C54.0376 5.91206 52.5029 7.45569 52.5029 9.35198C52.5029 11.2434 54.0376 12.787 55.9348 12.787H68.2127C70.1221 12.787 71.6568 11.2434 71.6568 9.35198C71.6568 7.45569 70.1221 5.91206 68.2127 5.91206V5.91206ZM41.9337 5.91206H14.1068C12.2096 5.91206 10.6748 7.45569 10.6748 9.35198C10.6748 11.2434 12.2096 12.787 14.1068 12.787H41.9337C43.8383 12.787 45.373 11.2434 45.373 9.35198C45.373 7.45569 43.8383 5.91206 41.9337 5.91206ZM105.046 91.5361C103.077 91.7535 101.119 92.21 99.2578 92.8659C97.4572 93.4988 96.5267 95.4663 97.1672 97.2539C97.6626 98.6646 98.9797 99.5476 100.394 99.5476C100.792 99.5476 101.167 99.4812 101.554 99.3447C102.919 98.8579 104.369 98.533 105.832 98.3579C107.717 98.1465 109.07 96.4471 108.865 94.5605C108.647 92.6726 106.968 91.309 105.046 91.5361ZM227.849 72.9658C227.849 65.4169 225.855 57.9947 222.084 51.5075C221.13 49.8709 219.015 49.3141 217.372 50.272C215.728 51.2249 215.172 53.3241 216.139 54.9703C219.293 60.4056 220.973 66.6295 220.973 72.9658C220.973 84.6902 215.329 95.4567 205.783 102.194C202.568 100.387 198.858 99.3579 194.919 99.3579C193.239 99.3579 191.583 99.5379 189.988 99.91C187.462 80.8311 170.991 65.9966 151.293 65.9966C133.288 65.9966 117.723 78.221 113.433 95.7115C113.433 95.726 113.433 95.7345 113.433 95.7393C113.433 95.7442 113.433 95.7441 113.433 95.7538C109.844 111.163 117.602 118.646 117.94 118.953C118.605 119.576 119.451 119.883 120.285 119.883C121.203 119.883 122.122 119.519 122.798 118.792C124.091 117.41 124.019 115.23 122.629 113.938C122.581 113.891 117.481 108.719 120.103 97.3481C123.644 82.94 136.478 72.8716 151.293 72.8716C168.828 72.8716 183.245 87.1251 183.438 104.642C183.438 105.813 184.055 106.894 185.046 107.511C186.036 108.129 187.281 108.21 188.345 107.714C190.435 106.728 192.647 106.228 194.919 106.228C203.45 106.228 210.387 113.163 210.387 121.685C210.387 130.21 203.45 137.151 194.919 137.151H108.043C97.3243 137.151 88.5872 128.417 88.5872 117.693C88.5872 116.079 88.7926 114.504 89.1793 112.975C89.1914 112.951 89.1913 112.928 89.2034 112.894C90.001 109.743 91.572 106.808 93.8439 104.389C95.1491 103.001 95.0765 100.825 93.6868 99.5282C92.2971 98.231 90.134 98.3011 88.8288 99.6841C86.3394 102.34 84.4785 105.449 83.27 108.8H30.5006C18.0621 108.8 7.93646 98.6792 7.93646 86.247C7.93646 76.3066 14.5926 67.4121 24.114 64.6052C25.946 64.0725 26.9841 62.1617 26.4415 60.3452C25.9086 58.5238 23.9956 57.4766 22.1793 58.0141C9.74069 61.675 1.06887 73.2822 1.06887 86.247C1.06887 102.473 14.2724 115.668 30.5006 115.668H81.7957C81.7474 116.339 81.7111 117.014 81.7111 117.693C81.7111 132.211 93.5176 144.02 108.043 144.02H194.919C207.233 144.02 217.251 134.003 217.251 121.685C217.251 115.867 215.015 110.582 211.353 106.61C221.746 98.5427 227.849 86.2748 227.849 72.9658ZM207.547 44.9974C208.175 45.5107 208.937 45.7523 209.686 45.7523C210.689 45.7523 211.692 45.3174 212.381 44.4683C213.565 42.9875 213.323 40.8267 211.849 39.637C209.396 37.6743 206.713 35.9761 203.897 34.5931C202.193 33.7634 200.127 34.4663 199.305 36.1693C198.471 37.8724 199.172 39.9293 200.876 40.7651C203.233 41.9258 205.48 43.3451 207.547 44.9974V44.9974ZM117.711 6.98343C95.6083 6.98343 76.1522 21.0908 69.2882 42.0901C65.1312 54.7541 71.4271 62.9444 71.693 63.2838C72.8652 64.7755 72.6356 66.9315 71.1492 68.1103C70.5208 68.6152 69.7474 68.8652 69.0103 68.8652C68.0072 68.8652 67.0284 68.4364 66.3396 67.597C66.0133 67.1912 59.0889 58.391 61.5541 44.78C51.234 46.2282 42.2177 52.6066 37.3924 62.1231C36.7882 63.3176 35.5761 64.0061 34.3241 64.0061C33.8057 64.0061 33.2716 63.8877 32.7761 63.6329C31.077 62.7789 30.4064 60.7075 31.2559 59.0142C37.5676 46.5675 49.7959 38.5524 63.5601 37.6646C71.9709 15.1036 93.4331 0.113334 117.711 0.113334C140.236 0.113334 160.357 12.938 169.916 33.0834C174.798 31.2112 179.91 30.2583 185.118 30.2583C187.015 30.2583 188.562 31.8006 188.562 33.6969C188.562 35.5932 187.015 37.132 185.118 37.132C179.765 37.132 174.544 38.3253 169.638 40.6938C168.78 41.0997 167.789 41.1419 166.895 40.7977C166.012 40.4583 165.312 39.7602 164.949 38.8773C157.142 19.5001 138.605 6.98343 117.711 6.98343" fill="#142B3D"/>
</svg>
