<svg width="228" height="183" viewBox="0 0 228 183" fill="none" xmlns="http://www.w3.org/2000/svg">
<path d="M47.5 166.549C47.5 173.684 41.7079 179.478 34.5705 179.478C27.4284 179.478 21.6458 173.684 21.6458 166.549C21.6458 159.411 34.5705 140.751 34.5705 140.751C34.5705 140.751 47.5 159.411 47.5 166.549Z" fill="#44A6BB"/>
<path d="M91.1457 124.097C91.1457 131.23 85.3583 137.024 78.2162 137.024C71.0788 137.024 65.2961 131.23 65.2961 124.097C65.2961 116.963 78.2162 98.2938 78.2162 98.2938C78.2162 98.2938 91.1457 116.963 91.1457 124.097" fill="#44A6BB"/>
<path d="M127.126 166.549C127.126 173.684 121.338 179.478 114.201 179.478C107.058 179.478 101.271 173.684 101.271 166.549C101.271 159.411 114.201 140.751 114.201 140.751C114.201 140.751 127.126 159.411 127.126 166.549Z" fill="#44A6BB"/>
<path d="M170.776 124.097C170.776 131.23 164.984 137.024 157.847 137.024C150.704 137.024 144.917 131.23 144.917 124.097C144.917 116.963 157.847 98.2938 157.847 98.2938C157.847 98.2938 170.776 116.963 170.776 124.097" fill="#44A6BB"/>
<path d="M66.1223 120.147C73.6043 120.147 81.8086 120.147 90.3197 120.147C87.4968 111.712 78.2162 98.2938 78.2162 98.2938C78.2162 98.2938 68.9405 111.712 66.1223 120.147" fill="#388BA9"/>
<path d="M169.945 120.147C167.122 111.712 157.847 98.2938 157.847 98.2938C157.847 98.2938 148.571 111.712 145.748 120.147C155.014 120.147 163.327 120.147 169.945 120.147Z" fill="#388BA9"/>
<path d="M206.755 166.549C206.755 173.684 200.968 179.478 193.826 179.478C186.689 179.478 180.902 173.684 180.902 166.549C180.902 159.411 193.826 140.751 193.826 140.751C193.826 140.751 206.755 159.411 206.755 166.549Z" fill="#44A6BB"/>
<path d="M34.5704 140.751C34.5704 140.751 33.3149 142.568 31.573 145.295C35.3965 151.287 41.5049 161.638 41.5049 166.549C41.5049 172.655 37.2659 177.756 31.573 179.11C32.5407 179.331 33.5367 179.478 34.5704 179.478C41.7079 179.478 47.5 173.684 47.5 166.549C47.5 159.411 34.5704 140.751 34.5704 140.751" fill="#388BA9"/>
<path d="M78.2162 98.2938C78.2162 98.2938 76.9606 100.119 75.2188 102.841C79.0423 108.833 85.1506 119.19 85.1506 124.097C85.1506 130.207 80.9116 135.302 75.2188 136.656C76.1864 136.883 77.1825 137.024 78.2162 137.024C85.3584 137.024 91.1457 131.23 91.1457 124.097C91.1457 116.963 78.2162 98.2938 78.2162 98.2938Z" fill="#388BA9"/>
<path d="M114.201 140.751C114.201 140.751 112.936 142.568 111.203 145.295C115.017 151.287 121.131 161.638 121.131 166.549C121.131 172.655 116.896 177.756 111.203 179.11C112.161 179.331 113.167 179.478 114.201 179.478C121.339 179.478 127.126 173.684 127.126 166.549C127.126 159.411 114.201 140.751 114.201 140.751" fill="#388BA9"/>
<path d="M157.847 98.2938C157.847 98.2938 156.582 100.119 154.849 102.841C158.663 108.833 164.781 119.19 164.781 124.097C164.781 130.207 160.542 135.302 154.849 136.656C155.807 136.883 156.813 137.024 157.847 137.024C164.984 137.024 170.776 131.23 170.776 124.097C170.776 116.963 157.847 98.2938 157.847 98.2938Z" fill="#388BA9"/>
<path d="M193.826 140.751C193.826 140.751 192.566 142.568 190.829 145.295C194.648 151.287 200.76 161.638 200.76 166.549C200.76 172.655 196.517 177.756 190.829 179.11C191.791 179.331 192.796 179.478 193.826 179.478C200.968 179.478 206.755 173.684 206.755 166.549C206.755 159.411 193.826 140.751 193.826 140.751" fill="#388BA9"/>
<path d="M184.867 34.0617C178.777 34.0617 173.027 35.4869 167.882 37.9642C159.838 18.0061 140.295 3.91312 117.448 3.91312C93.317 3.91312 72.863 19.639 65.7682 41.3883C51.9041 41.4173 39.9328 49.3672 34.07 60.9309C32.819 60.7522 31.5492 60.6193 30.2464 60.6193C15.8866 60.6193 4.24585 72.2543 4.24585 86.6118C4.24585 100.96 15.8866 112.598 30.2464 112.598C36.4067 112.598 172.565 112.598 184.867 112.598C206.567 112.598 224.156 95.0146 224.156 73.3305C224.156 51.6464 206.567 34.0617 184.867 34.0617Z" fill="#DCF0F4"/>
<path d="M154.618 43.3378C158.229 40.3085 163.997 38.5633 167.882 37.9642C167.226 36.3167 166.66 35.1463 166.183 34.1849C157.303 16.2559 138.827 3.91313 117.448 3.91313C114.781 3.91313 112.176 4.13534 109.612 4.50252C128.966 7.34332 148.378 23.6248 154.618 43.3378" fill="#C1DEE8"/>
<path d="M184.867 34.0617C182.185 34.0617 179.58 34.3539 177.049 34.8733C194.926 38.5536 208.365 54.3689 208.365 73.3305C208.365 95.0146 190.777 112.598 169.081 112.598C177.091 112.598 182.775 112.598 184.867 112.598C206.567 112.598 224.156 95.0146 224.156 73.3305C224.156 51.6464 206.567 34.0617 184.867 34.0617" fill="#C1DEE8"/>
<path d="M55.0906 43.0588C57.2715 58.5298 68.7517 65.7997 68.7517 65.7997C68.7517 65.7997 60.9204 56.1371 65.7684 41.3884C62.0392 41.3932 58.4611 41.9923 55.0906 43.0588Z" fill="#C1DEE8"/>
<path d="M30.2465 60.6193C28.651 60.6193 27.0932 60.7848 25.5779 61.0638C26.4795 69.678 32.0497 75.8729 32.0497 75.8729C32.0497 75.8729 30.813 67.3432 34.0701 60.9309C32.8191 60.7521 31.5493 60.6193 30.2465 60.6193Z" fill="#C1DEE8"/>
<path d="M184.867 51.2926C182.964 51.2926 181.425 49.7489 181.425 47.8527C181.425 45.9612 182.964 44.4176 184.867 44.4176C200.812 44.4176 213.79 57.3885 213.79 73.3306C213.79 75.2269 212.255 76.7693 210.358 76.7693C208.454 76.7693 206.916 75.2269 206.916 73.3306C206.916 61.1763 197.026 51.2926 184.867 51.2926V51.2926ZM37.1383 62.4879C34.4289 67.8144 35.4437 75.3066 35.4532 75.3827C35.7223 77.2608 34.4099 78.9965 32.536 79.2707C32.3706 79.2936 32.2054 79.3032 32.045 79.3032C30.3645 79.3032 28.8916 78.0725 28.6462 76.3634C28.5942 75.9721 27.2961 66.6779 31.0017 59.3838H31.0064V59.3741C37.3178 46.9275 49.5392 38.9172 63.2947 38.0343C65.5417 32.0193 68.7657 26.4561 72.8821 21.4641C74.0999 20.0014 76.2619 19.7985 77.7253 21.0063C79.1886 22.2141 79.3963 24.3798 78.1879 25.8425C74.0905 30.7922 71.0174 36.3832 69.0349 42.4501C69.0301 42.4549 69.0301 42.4549 69.0301 42.4549C64.8241 55.2784 71.3621 63.5593 71.4233 63.6342C72.6224 65.1065 72.3911 67.2721 70.9183 68.4703C70.281 68.9848 69.521 69.2348 68.7563 69.2348C67.7556 69.2348 66.7643 68.8012 66.0845 67.9606C65.754 67.5559 58.8386 58.7557 61.2932 45.1399C50.9742 46.5978 41.9627 52.9714 37.1383 62.4879V62.4879ZM0.804688 86.6118C0.804688 74.298 8.57935 63.1908 20.1445 58.9683C21.9195 58.3124 23.8974 59.2376 24.5488 61.0156C25.2002 62.7947 24.2844 64.772 22.5049 65.423C13.6397 68.6599 7.68245 77.1751 7.68245 86.6118C7.68245 99.044 17.808 109.164 30.2464 109.164H38.3987C40.3011 109.164 41.84 110.697 41.84 112.598C41.84 114.496 40.3011 116.028 38.3987 116.028H30.2464C14.0126 116.028 0.804688 102.837 0.804688 86.6118V86.6118ZM87.7044 124.097C87.7044 129.334 83.4513 133.581 78.2162 133.581C72.9906 133.581 68.728 129.334 68.728 124.097C68.728 123.366 69.049 121.171 71.6028 116.028H84.8391C87.3882 121.171 87.7044 123.366 87.7044 124.097ZM184.867 30.6267C179.636 30.6267 174.538 31.5748 169.657 33.4482C160.108 13.3065 139.979 0.478147 117.448 0.478147C110.486 0.478147 103.679 1.70525 97.2162 4.11607C95.4366 4.78159 94.5396 6.76246 95.2005 8.53676C95.8662 10.3207 97.844 11.2218 99.6237 10.5562C105.317 8.42805 111.312 7.34825 117.448 7.34825C138.336 7.34825 156.884 19.8698 164.696 39.2421C165.05 40.1287 165.757 40.8231 166.646 41.1674C167.528 41.5068 168.515 41.4645 169.374 41.0586C174.293 38.6949 179.5 37.4968 184.867 37.4968C204.631 37.4968 220.719 53.5706 220.719 73.3306C220.719 93.0846 204.631 109.164 184.867 109.164H51.111C49.2087 109.164 47.6746 110.697 47.6746 112.598C47.6746 114.496 49.2087 116.028 51.111 116.028H64.0122C62.563 119.402 61.855 122.03 61.855 124.097C61.855 133.123 69.1953 140.459 78.2162 140.459C87.2465 140.459 94.5869 133.123 94.5869 124.097C94.5869 122.03 93.8789 119.402 92.4201 116.028H143.643C142.193 119.402 141.486 122.03 141.486 124.097C141.486 133.123 148.826 140.459 157.847 140.459C166.867 140.459 174.213 133.123 174.213 124.097C174.213 122.2 172.673 120.662 170.776 120.662C168.874 120.662 167.334 122.2 167.334 124.097C167.334 129.334 163.082 133.581 157.847 133.581C152.612 133.581 148.358 129.334 148.358 124.097C148.358 123.366 148.675 121.186 151.223 116.028H184.867C208.426 116.028 227.591 96.8784 227.591 73.3306C227.591 49.7828 208.426 30.6267 184.867 30.6267V30.6267ZM81.1854 17.6329C80.01 16.1424 80.2697 13.9768 81.7613 12.8016C83.1539 11.7121 84.6172 10.6697 86.1183 9.70227C87.7091 8.66958 89.8428 9.12255 90.8719 10.7169C91.901 12.3064 91.4478 14.4346 89.8522 15.4685C88.5305 16.326 87.2371 17.2416 86.0098 18.209C85.3866 18.6994 84.6361 18.941 83.895 18.941C82.8706 18.941 81.8652 18.4917 81.1854 17.6329V17.6329ZM193.826 176.028C188.596 176.028 184.337 171.782 184.337 166.549C184.337 163.106 189.242 154.137 193.826 146.971C198.414 154.137 203.315 163.106 203.315 166.549C203.315 171.782 199.061 176.028 193.826 176.028V176.028ZM196.654 138.794C195.364 136.944 192.283 136.944 190.998 138.794C188.742 142.058 177.46 158.742 177.46 166.549C177.46 175.571 184.805 182.907 193.826 182.907C202.852 182.907 210.187 175.571 210.187 166.549C210.187 158.742 198.915 142.058 196.654 138.794V138.794ZM97.8346 166.549C97.8346 158.742 109.112 142.058 111.373 138.794C112.015 137.864 113.072 137.308 114.201 137.308C115.324 137.308 116.386 137.864 117.023 138.794C117.127 138.935 119.432 142.276 122.122 146.711C123.108 148.324 122.589 150.438 120.965 151.424C119.341 152.414 117.231 151.886 116.245 150.273C115.522 149.079 114.824 147.961 114.191 146.979C109.608 154.151 104.712 163.106 104.712 166.549C104.712 171.782 108.965 176.028 114.201 176.028C119.432 176.028 123.689 171.782 123.689 166.549C123.689 165.994 123.5 164.257 121.711 160.331C120.928 158.609 121.688 156.572 123.415 155.788C125.143 155 127.186 155.77 127.97 157.491C129.717 161.332 130.566 164.294 130.566 166.549C130.566 175.571 123.221 182.907 114.201 182.907C105.175 182.907 97.8346 175.571 97.8346 166.549V166.549ZM34.5704 176.028C29.3401 176.028 25.0823 171.782 25.0823 166.549C25.0823 163.106 29.9869 154.137 34.5752 146.971C39.1587 154.137 44.0634 163.106 44.0634 166.549C44.0634 171.782 39.8055 176.028 34.5704 176.028ZM31.7429 138.794C29.4817 142.058 18.2092 158.742 18.2092 166.549C18.2092 175.571 25.5496 182.907 34.5704 182.907C43.596 182.907 50.9364 175.571 50.9364 166.549C50.9364 158.742 39.6639 142.058 37.4027 138.794C36.1141 136.944 33.0315 136.944 31.7429 138.794" fill="#142B3D"/>
</svg>
