<svg width="237" height="202" viewBox="0 0 237 202" fill="none" xmlns="http://www.w3.org/2000/svg">
<path d="M209.92 58.2197C210.084 56.8379 210.203 55.4272 210.203 53.9923C210.203 35.3748 195.107 20.2819 176.475 20.2819C168.497 20.2819 161.166 23.0744 155.398 27.704C145.707 13.4359 129.373 4.04264 110.822 4.04264C85.7325 4.04264 64.6462 21.1974 58.6753 44.4106C53.9635 42.0976 48.6911 40.7727 43.0972 40.7727C23.507 40.7727 7.63159 56.6435 7.63159 76.2151C7.63159 95.7952 23.507 111.666 43.0972 111.666C55.4415 111.666 199.559 111.666 205.775 111.666C220.635 111.666 232.695 99.6204 232.695 84.7641C232.695 71.3125 222.807 60.215 209.92 58.2197" fill="#44A6BB"/>
<path d="M111.781 77.4181L84.4492 111.666C96.0141 111.666 108.958 111.666 121.976 111.666L149.309 77.4181H111.781Z" fill="#388BA9"/>
<path d="M209.92 58.2197C210.084 56.8379 210.203 55.4272 210.203 53.9923C210.203 35.3748 195.107 20.2819 176.475 20.2819C173.288 20.2819 170.205 20.7445 167.293 21.5743C181.455 25.5661 191.85 38.555 191.85 53.9923C191.85 55.4272 191.731 56.8379 191.566 58.2197C204.453 60.215 214.343 71.3125 214.343 84.7641C214.343 99.6204 202.281 111.666 187.426 111.666C197.67 111.666 204.514 111.666 205.775 111.666C220.635 111.666 232.695 99.6204 232.695 84.7641C232.695 71.3125 222.807 60.215 209.92 58.2197" fill="#388BA9"/>
<path d="M43.0971 40.7726C42.0107 40.7726 40.9255 40.839 39.8633 40.9332C43.9938 60.0314 59.5332 70.5153 59.5332 70.5153C59.5332 70.5153 55.7568 59.2668 58.6752 44.4105C53.9635 42.0975 48.691 40.7726 43.0971 40.7726" fill="#388BA9"/>
<path d="M177.23 127.632H153.188L129.671 157.101H150.285L127.131 186.122L182.692 149.571H159.727L177.23 127.632" fill="#F5B90B"/>
<path d="M134.556 77.4179H97.029L60.3272 123.424H92.507L56.3611 168.726L143.077 111.666H107.225L134.556 77.4179" fill="#F5B90B"/>
<path d="M159.727 149.571L177.23 127.632H165.792L148.294 149.571H159.727Z" fill="#F49013"/>
<path d="M171.259 149.571L139.773 170.292L127.131 186.122L182.692 149.571H171.259" fill="#F49013"/>
<path d="M107.225 111.666L134.556 77.4181H123.119L95.8013 111.666H107.225" fill="#F49013"/>
<path d="M131.639 111.666L68.9894 152.897L56.3611 168.726L143.077 111.666H131.639" fill="#F49013"/>
<path d="M195.877 158.917C196.513 159.422 197.269 159.667 198.024 159.667C199.025 159.667 200.03 159.224 200.715 158.375L217 137.974C218.191 136.488 217.944 134.332 216.458 133.142C214.98 131.959 212.808 132.199 211.629 133.691L195.333 154.086C194.153 155.568 194.389 157.734 195.877 158.917V158.917ZM191.095 164.895C189.622 163.711 187.45 163.952 186.269 165.443L182.574 170.057C181.393 171.538 181.643 173.704 183.117 174.888C183.753 175.388 184.509 175.638 185.264 175.638C186.269 175.638 187.271 175.195 187.955 174.346L191.637 169.726C192.831 168.24 192.581 166.084 191.095 164.895V164.895ZM164.589 201.527C165.594 201.527 166.595 201.082 167.28 200.233L180.615 183.532C181.794 182.051 181.559 179.89 180.072 178.705C178.585 177.521 176.428 177.767 175.234 179.247L161.897 195.949C160.718 197.426 160.968 199.592 162.441 200.776C163.078 201.281 163.833 201.527 164.589 201.527V201.527ZM194.233 122.635C192.761 121.452 190.59 121.692 189.409 123.178L178.491 136.842C177.31 138.323 177.56 140.488 179.033 141.673C179.671 142.173 180.427 142.423 181.182 142.423C182.187 142.423 183.188 141.98 183.872 141.131L194.777 127.467C195.971 125.981 195.721 123.82 194.233 122.635V122.635ZM133.976 201.527C134.982 201.527 135.982 201.082 136.667 200.233L140.174 195.837C141.363 194.35 141.118 192.189 139.632 191.006C138.154 189.821 135.982 190.061 134.803 191.548L131.285 195.949C130.106 197.426 130.356 199.592 131.829 200.776C132.466 201.281 133.221 201.527 133.976 201.527V201.527ZM101.216 200.776C101.853 201.281 102.609 201.527 103.364 201.527C104.369 201.527 105.37 201.082 106.055 200.233L128.264 172.43C129.445 170.944 129.199 168.778 127.721 167.599C126.235 166.414 124.063 166.655 122.883 168.141L100.673 195.949C99.4931 197.426 99.7287 199.592 101.216 200.776V200.776ZM120.074 138.837C118.588 137.658 116.43 137.894 115.25 139.379L99.1294 159.559C97.9354 161.045 98.1855 163.206 99.6719 164.39C100.295 164.895 101.051 165.141 101.806 165.141C102.821 165.141 103.827 164.697 104.496 163.848L120.617 143.664C121.797 142.188 121.562 140.022 120.074 138.837V138.837ZM72.7513 201.527C73.7568 201.527 74.7573 201.082 75.4425 200.233L94.5505 176.304C95.7312 174.822 95.4944 172.656 94.008 171.473C92.5204 170.293 90.3584 170.533 89.179 172.015L70.0601 195.949C68.8807 197.426 69.1163 199.592 70.6039 200.776C71.2408 201.281 71.9961 201.527 72.7513 201.527V201.527ZM39.9915 200.776C40.6283 201.281 41.3837 201.527 42.1389 201.527C43.1444 201.527 44.1449 201.082 44.8289 200.233L59.0524 182.432C60.233 180.947 59.9829 178.781 58.5098 177.601C57.0222 176.417 54.8602 176.658 53.6711 178.139L39.4477 195.949C38.2682 197.426 38.5184 199.592 39.9915 200.776V200.776ZM46.7552 157.417C47.7557 157.417 48.7612 156.979 49.4464 156.13L63.9382 137.974C65.1273 136.488 64.8819 134.332 63.3955 133.142C61.9176 131.959 59.746 132.199 58.5666 133.691L44.0652 151.841C42.8845 153.326 43.1202 155.482 44.6078 156.672C45.2446 157.177 45.9999 157.417 46.7552 157.417V157.417ZM40.3456 162.013C38.858 160.828 36.7009 161.068 35.5069 162.555L27.9541 172.015C26.7638 173.501 27.0092 175.663 28.4968 176.846C29.1239 177.356 29.8889 177.596 30.6345 177.596C31.6496 177.596 32.6502 177.153 33.3257 176.304L40.8882 166.844C42.0676 165.357 41.8223 163.192 40.3456 162.013V162.013ZM9.37909 200.776C10.0159 201.281 10.7712 201.527 11.5265 201.527C12.5319 201.527 13.5325 201.082 14.2165 200.233L24.933 186.811C26.1125 185.334 25.8768 183.168 24.3892 181.984C22.9028 180.804 20.7457 181.046 19.5518 182.527L8.83528 195.949C7.65583 197.426 7.906 199.592 9.37909 200.776ZM41.1709 122.635C39.6978 121.452 37.5275 121.692 36.3468 123.178L19.5518 144.197C18.3711 145.678 18.6213 147.839 20.0944 149.029C20.7313 149.534 21.4865 149.779 22.2418 149.779C23.2569 149.779 24.2478 149.336 24.933 148.487L41.728 127.467C42.9087 125.981 42.6585 123.82 41.1709 122.635V122.635ZM7.05646 170.874L15.9772 159.691C17.1675 158.209 16.9222 156.044 15.4346 154.86C13.9579 153.68 11.7863 153.922 10.6056 155.402L1.67523 166.585C0.494579 168.065 0.739863 170.227 2.2178 171.416C2.85465 171.916 3.6099 172.161 4.36518 172.161C5.38028 172.161 6.37127 171.723 7.05646 170.874V170.874ZM177.23 124.192H153.188C152.14 124.192 151.149 124.669 150.498 125.486L146.887 130.01C145.707 131.491 145.957 133.652 147.43 134.837C148.916 136.021 151.078 135.775 152.268 134.295L154.841 131.072H170.088L157.036 147.43C156.209 148.462 156.058 149.868 156.625 151.062C157.201 152.256 158.405 153.011 159.727 153.011H171.212L143.299 171.374L152.977 159.248C153.802 158.214 153.958 156.799 153.391 155.615C152.811 154.425 151.607 153.67 150.285 153.67H136.809L143.478 145.306C144.669 143.824 144.423 141.659 142.936 140.475C141.458 139.295 139.287 139.535 138.107 141.027L126.99 154.959C126.164 155.992 125.998 157.408 126.579 158.592C127.146 159.786 128.359 160.541 129.672 160.541H143.148L124.455 183.98C123.393 185.301 123.464 187.197 124.596 188.444C125.267 189.179 126.201 189.561 127.132 189.561C127.793 189.561 128.444 189.377 129.019 188.996L184.58 152.445C185.845 151.605 186.42 150.043 185.987 148.586C185.548 147.128 184.203 146.131 182.692 146.131H166.869L179.921 129.769C180.732 128.741 180.898 127.33 180.331 126.142C179.756 124.947 178.552 124.192 177.23 124.192V124.192ZM150.465 108.231H129.388C127.486 108.231 125.942 109.77 125.942 111.666C125.942 113.562 127.486 115.106 129.388 115.106H131.592L72.529 153.972L95.1874 125.566C96.0139 124.532 96.1795 123.126 95.5983 121.932C95.023 120.744 93.8195 119.989 92.5071 119.989H67.4644L98.6811 80.8519H127.414L104.544 109.524C103.718 110.557 103.552 111.968 104.134 113.158C104.699 114.351 105.904 115.106 107.225 115.106H117.927C119.829 115.106 121.372 113.562 121.372 111.666C121.372 109.77 119.829 108.231 117.927 108.231H114.363L137.233 79.5595C138.06 78.5268 138.225 77.1112 137.649 75.9263C137.082 74.733 135.878 73.9781 134.556 73.9781H97.0291C95.9765 73.9781 94.9843 74.4588 94.3378 75.2705L68.0444 108.231H43.0972C25.443 108.231 11.0685 93.8747 11.0685 76.215C11.0685 58.5639 25.443 44.2028 43.0972 44.2028C47.1431 44.2028 51.0609 45.0048 54.8277 46.5049C52.7032 60.692 56.1255 71.1421 56.2766 71.6095C56.7624 73.048 58.0941 73.9504 59.5333 73.9504C59.9019 73.9504 60.2657 73.8984 60.6342 73.7752C62.4276 73.1713 63.3955 71.2231 62.7913 69.421C62.7575 69.322 59.3593 58.9371 62.0263 45.1835C67.7858 22.9752 87.8328 7.47643 110.822 7.47643C119.059 7.47643 127.226 9.50555 134.439 13.3561C136.124 14.2523 138.201 13.6146 139.088 11.9405C139.986 10.2604 139.348 8.17938 137.673 7.288C129.469 2.91446 120.183 0.602642 110.822 0.602642C86.0068 0.602642 64.1979 16.5025 56.4651 39.7302C52.1835 38.1347 47.699 37.3327 43.0972 37.3327C21.6424 37.3327 4.19967 54.7797 4.19967 76.215C4.19967 97.6576 21.6424 115.106 43.0972 115.106H62.5545L57.6361 121.286C56.8107 122.31 56.6548 123.726 57.2204 124.919C57.8016 126.103 59.0052 126.858 60.3273 126.858H85.3687L53.6711 166.585C52.6186 167.906 52.6802 169.797 53.8222 171.043C54.4965 171.779 55.4174 172.161 56.3612 172.161C57.0089 172.161 57.6687 171.982 58.2499 171.595L144.102 115.106H150.465C152.363 115.106 153.911 113.562 153.911 111.666C153.911 109.77 152.363 108.231 150.465 108.231V108.231ZM213.611 55.4839C213.635 54.979 213.649 54.4826 213.649 53.9922C213.649 33.5111 196.971 16.8419 176.475 16.8419C167.94 16.8419 159.906 19.6731 153.236 25.0237C151.763 26.2171 151.526 28.373 152.707 29.855C153.896 31.3358 156.058 31.5725 157.546 30.3828C162.984 26.0189 169.522 23.7217 176.475 23.7217C193.185 23.7217 206.766 37.3 206.766 53.9922C206.766 55.1384 206.686 56.3463 206.498 57.7908C206.27 59.6352 207.545 61.3334 209.386 61.622C220.895 63.4 229.25 73.1339 229.25 84.764C229.25 97.701 218.723 108.231 205.765 108.231H162.89C160.991 108.231 159.443 109.77 159.443 111.666C159.443 113.562 160.991 115.106 162.89 115.106H205.765C222.51 115.106 236.128 101.494 236.128 84.764C236.128 70.8076 226.829 58.9649 213.611 55.4839ZM150.922 17.0074C152.282 18.3432 152.306 20.5173 150.971 21.8761C150.3 22.561 149.412 22.9004 148.515 22.9004C147.643 22.9004 146.783 22.5742 146.108 21.9184C145.07 20.905 143.998 19.9231 142.888 19.0075C141.425 17.7997 141.212 15.634 142.426 14.1714C143.629 12.7087 145.801 12.5058 147.264 13.7136C148.529 14.7524 149.757 15.8611 150.922 17.0074" fill="#142B3D"/>
</svg>
