<svg width="201" height="230" viewBox="0 0 201 230" fill="none" xmlns="http://www.w3.org/2000/svg">
<path d="M43.2766 41.6767C22.9215 62.0116 22.9215 94.9961 43.2766 115.331C63.6269 135.676 96.6054 135.676 116.968 115.331C137.306 94.9961 137.306 62.0116 116.968 41.6767C96.6054 21.3417 63.6269 21.3417 43.2766 41.6767Z" fill="#F5B90B"/>
<path d="M116.968 115.331C125.161 107.131 130.055 96.8779 131.65 86.2298C122.079 75.3074 108.061 68.3865 92.3999 68.3865C66.2491 68.3865 44.6178 87.6127 40.8232 112.684C41.5966 113.585 42.4184 114.482 43.2764 115.331C63.6267 135.676 96.6052 135.676 116.968 115.331Z" fill="#F49013"/>
<path d="M116.967 41.6766C105.1 29.8255 88.9435 24.8951 73.4995 26.8675C84.5568 28.2685 95.2516 33.1989 103.735 41.6766C124.097 62.0116 124.097 94.9961 103.735 115.331C95.2516 123.818 84.5568 128.749 73.4995 130.155C88.9435 132.113 105.1 127.182 116.967 115.331C137.306 94.9961 137.306 62.0116 116.967 41.6766Z" fill="#F49013"/>
<path d="M161.366 112.005C154.574 112.005 148.242 113.948 142.84 117.26C136.919 94.9491 116.581 78.5069 92.3997 78.5069C65.7293 78.5069 43.7475 98.4964 40.5935 124.296C38.3337 123.739 35.9772 123.418 33.5241 123.418C17.1146 123.418 3.80225 136.728 3.80225 153.132C3.80225 169.55 17.1146 182.856 33.5241 182.856C43.7113 182.856 148.496 182.856 161.366 182.856C180.943 182.856 196.81 166.989 196.81 147.423C196.81 127.857 180.943 112.005 161.366 112.005Z" fill="#44A6BB"/>
<path d="M161.366 112.005C158.695 112.005 156.085 112.312 153.583 112.878C169.426 116.425 181.257 130.533 181.257 147.423C181.257 166.989 165.402 182.856 145.813 182.856C153.378 182.856 158.961 182.856 161.366 182.856C180.943 182.856 196.809 166.989 196.809 147.423C196.809 127.857 180.943 112.005 161.366 112.005Z" fill="#388BA9"/>
<path d="M141.136 112.062C133.632 92.4573 114.659 78.5069 92.3997 78.5069C89.7291 78.5069 87.0946 78.7134 84.5327 79.106C104.375 82.0301 120.629 97.2234 126.635 115.977C120.786 130.84 129.547 141.918 129.547 141.918C129.547 141.918 129.547 125.249 142.84 117.26C142.393 115.562 141.861 113.911 141.245 112.297C141.221 112.217 141.173 112.141 141.136 112.062" fill="#388BA9"/>
<path d="M74.1524 215.59C74.1524 221.615 69.2583 226.498 63.2281 226.498C57.1859 226.498 52.3037 221.615 52.3037 215.59C52.3037 209.551 63.2281 193.778 63.2281 193.778C63.2281 193.778 74.1524 209.551 74.1524 215.59Z" fill="#44A6BB"/>
<path d="M141.439 215.59C141.439 221.615 136.556 226.498 130.526 226.498C124.484 226.498 119.59 221.615 119.59 215.59C119.59 209.551 130.526 193.778 130.526 193.778C130.526 193.778 141.439 209.551 141.439 215.59Z" fill="#44A6BB"/>
<path d="M63.2279 193.778C63.2279 193.778 61.7657 195.887 59.9167 198.85C63.1433 204.007 67.5299 211.754 67.5299 215.59C67.5299 220.459 64.3276 224.587 59.9167 225.993C60.9681 226.318 62.0799 226.498 63.2279 226.498C69.258 226.498 74.1522 221.615 74.1522 215.59C74.1522 209.551 63.2279 193.778 63.2279 193.778Z" fill="#388BA9"/>
<path d="M130.526 193.778C130.526 193.778 129.064 195.887 127.203 198.85C130.43 204.007 134.816 211.754 134.816 215.59C134.816 220.459 131.626 224.587 127.203 225.993C128.254 226.318 129.366 226.498 130.526 226.498C136.557 226.498 141.439 221.615 141.439 215.59C141.439 209.551 130.526 193.778 130.526 193.778Z" fill="#388BA9"/>
<path d="M130.526 223.063C134.647 223.063 138.006 219.719 138.006 215.59C138.006 213.099 134.49 206.319 130.526 200.015C126.55 206.319 123.034 213.113 123.034 215.59C123.034 219.719 126.393 223.063 130.526 223.063ZM130.526 229.942C122.599 229.942 116.146 223.502 116.146 215.59C116.146 208.829 125.765 194.604 127.686 191.82C128.979 189.971 132.061 189.971 133.342 191.82C135.263 194.604 144.882 208.829 144.882 215.59C144.882 223.502 138.441 229.942 130.526 229.942V229.942ZM65.1854 190.947C63.6265 189.877 61.4874 190.263 60.3998 191.82C58.4784 194.604 48.8592 208.829 48.8592 215.59C48.8592 223.502 55.3003 229.942 63.2277 229.942C71.1551 229.942 77.5962 223.502 77.5962 215.59C77.5962 213.17 76.5447 209.97 74.297 205.527C73.4511 203.837 71.3726 203.158 69.6929 204.017C67.9889 204.866 67.3001 206.933 68.1702 208.631C70.5267 213.311 70.72 215.142 70.72 215.59C70.72 219.719 67.3485 223.063 63.2277 223.063C59.1069 223.063 55.7353 219.719 55.7353 215.59C55.7353 212.532 61.1008 202.898 66.0554 195.736C67.143 194.179 66.7443 192.033 65.1854 190.947V190.947ZM14.2214 130.288C14.8812 131.273 15.9677 131.816 17.077 131.816C17.738 131.816 18.399 131.632 18.9888 131.241C21.6316 129.471 24.5489 128.221 27.651 127.513C29.4999 127.088 30.6599 125.249 30.237 123.398C29.814 121.544 27.9579 120.398 26.1162 120.813C22.2129 121.71 18.5308 123.291 15.1798 125.517C13.5979 126.569 13.1592 128.702 14.2214 130.288V130.288ZM161.366 108.555C155.674 108.555 150.055 109.829 144.895 112.25C142.405 105.126 138.514 98.7416 133.62 93.3535C137.946 77.7375 135.36 61.2241 126.357 47.7303C125.294 46.1492 123.167 45.7253 121.596 46.7725C120.013 47.839 119.59 49.9623 120.629 51.5374C127.819 62.3087 130.357 75.2844 127.868 87.8579C118.14 79.8138 105.705 75.0718 92.3997 75.0718C69.9467 75.0718 50.2731 88.5089 41.5481 108.107C26.9428 89.0754 28.3591 61.4463 45.7052 44.1068C59.7474 30.0755 80.6534 25.9665 98.9614 33.647C100.714 34.3778 102.732 33.5661 103.481 31.8063C104.206 30.061 103.384 28.0415 101.632 27.3156C80.7381 18.5492 56.8712 23.2343 40.8472 39.2525C20.0039 60.0682 19.286 93.9067 38.8532 115.623C38.0919 118.304 37.5239 121.049 37.1856 123.88C36.956 125.767 38.2974 127.475 40.1826 127.716C42.0798 127.947 43.7837 126.593 44.0133 124.715C46.9982 100.337 67.7836 81.9456 92.3997 81.9456C105.946 81.9456 118.454 87.5656 127.42 96.7982C127.469 96.8453 127.505 96.8924 127.553 96.9262C132.617 102.191 136.508 108.617 138.804 115.849C126.272 125.116 126.103 141.195 126.103 141.918C126.103 143.814 127.65 145.356 129.547 145.356C131.445 145.356 132.979 143.814 132.979 141.918C132.979 141.77 133.112 127.112 144.617 120.2C144.629 120.2 144.629 120.2 144.641 120.185C144.641 120.185 144.641 120.185 144.653 120.185C149.716 117.072 155.481 115.435 161.366 115.435C179.009 115.435 193.378 129.791 193.378 147.423C193.378 165.068 179.009 179.421 161.366 179.421H33.524C19.0359 179.421 7.23419 167.631 7.23419 153.132C7.23419 148.051 8.68797 143.106 11.4505 138.86C12.474 137.27 12.0257 135.142 10.4354 134.109C8.83899 133.08 6.7061 133.528 5.6765 135.124C2.19737 140.488 0.356934 146.715 0.356934 153.132C0.356934 171.414 15.2353 186.291 33.524 186.291H161.366C182.804 186.291 200.242 168.852 200.242 147.423C200.242 125.989 182.804 108.555 161.366 108.555V108.555ZM142.284 65.2909C142.586 65.2909 142.876 65.2583 143.191 65.1725L155.408 61.8993C157.257 61.4125 158.345 59.5259 157.849 57.6852C157.354 55.8602 155.481 54.7695 153.632 55.2562L141.402 58.5343C139.565 59.0307 138.478 60.9173 138.973 62.7484C139.384 64.2763 140.774 65.2909 142.284 65.2909ZM141.402 98.4735L153.632 101.753C153.934 101.832 154.236 101.87 154.526 101.87C156.049 101.87 157.426 100.855 157.849 99.3226C158.345 97.4915 157.257 95.6097 155.408 95.1145L143.191 91.8437C141.342 91.3485 139.469 92.4343 138.973 94.2739C138.478 96.1049 139.565 97.9867 141.402 98.4735V98.4735ZM128.073 35.4394L137.015 26.4991C138.357 25.1548 138.357 22.9699 137.015 21.6388C135.674 20.2945 133.499 20.2945 132.157 21.6388L123.203 30.5803C121.862 31.9247 121.862 34.1096 123.203 35.4394C123.88 36.1146 124.75 36.454 125.632 36.454C126.514 36.454 127.396 36.1146 128.073 35.4394V35.4394ZM63.4572 19.7993C63.7472 19.7993 64.0493 19.7667 64.3394 19.6809C66.1883 19.1857 67.2638 17.3124 66.7684 15.468L63.5056 3.25328C63.0101 1.40772 61.1371 0.323104 59.2881 0.818313C57.4513 1.30507 56.3637 3.1917 56.8591 5.03122L60.134 17.252C60.5449 18.7847 61.9346 19.7993 63.4572 19.7993V19.7993ZM96.7863 19.7993C98.2969 19.7993 99.6866 18.7847 100.097 17.252L103.384 5.03122C103.868 3.1917 102.78 1.30507 100.955 0.818313C99.0944 0.323104 97.2213 1.40772 96.7379 3.25328L93.451 15.468C92.9555 17.3124 94.0552 19.1857 95.8921 19.6809C96.1821 19.7667 96.4842 19.7993 96.7863 19.7993V19.7993ZM2.38712 99.3226C2.79678 100.855 4.19013 101.87 5.70069 101.87C5.99797 101.87 6.30492 101.832 6.59736 101.753L18.8232 98.4735C20.6648 97.9867 21.7501 96.1049 21.2546 94.2739C20.7724 92.4343 18.8848 91.3485 17.0528 91.8437L4.81729 95.1145C2.98649 95.6097 1.89045 97.4915 2.38712 99.3226V99.3226ZM4.81729 61.8993L17.0528 65.1725C17.3501 65.2583 17.6437 65.2909 17.941 65.2909C19.4613 65.2909 20.8437 64.2763 21.2546 62.7484C21.7501 60.9173 20.6648 59.0307 18.8232 58.5343L6.59736 55.2562C4.74723 54.7695 2.88258 55.8602 2.38712 57.6852C1.89045 59.5259 2.98649 61.4125 4.81729 61.8993ZM34.5995 36.454C35.4817 36.454 36.3638 36.1146 37.0285 35.4394C38.3698 34.1096 38.3698 31.9247 37.0285 30.5803L28.0751 21.6388C26.7301 20.2945 24.5585 20.2945 23.2135 21.6388C21.8685 22.9699 21.8685 25.1548 23.2135 26.4991L32.1705 35.4394C32.8473 36.1146 33.7174 36.454 34.5995 36.454V36.454ZM109.233 39.5207C107.711 38.389 107.396 36.233 108.532 34.7087C109.668 33.1844 111.831 32.8776 113.354 34.0154C115.469 35.6049 117.511 37.3599 119.396 39.2525C120.738 40.5968 120.738 42.7673 119.396 44.1068C118.72 44.782 117.837 45.1262 116.967 45.1262C116.073 45.1262 115.203 44.782 114.538 44.1068C112.871 42.4605 111.082 40.9133 109.233 39.5207Z" fill="#142B3D"/>
</svg>
