<svg width="238" height="206" viewBox="0 0 238 206" fill="none" xmlns="http://www.w3.org/2000/svg">
<path d="M149.785 30.8275C118.436 30.8275 93.0166 56.2341 93.0166 87.5711C93.0166 118.914 118.436 144.321 149.785 144.321C181.139 144.321 206.559 118.914 206.559 87.5711C206.559 56.2341 181.139 30.8275 149.785 30.8275Z" fill="#F5B90B"/>
<path d="M149.785 30.8275C147.08 30.8275 144.437 31.0304 141.831 31.3939C169.422 35.2626 190.651 58.9323 190.651 87.5711C190.651 116.22 169.422 139.886 141.831 143.754C144.437 144.123 147.08 144.321 149.785 144.321C181.139 144.321 206.559 118.914 206.559 87.5711C206.559 56.2341 181.139 30.8275 149.785 30.8275Z" fill="#F49013"/>
<path d="M172.618 97.3243C164.64 97.3243 157.314 100.112 151.541 104.745C141.855 90.4783 125.512 81.079 106.966 81.079C102.212 81.079 97.6099 81.6974 93.2196 82.8533C93.0963 84.4102 93.0166 85.9864 93.0166 87.5711C93.0166 118.914 118.436 144.321 149.785 144.321C172.193 144.321 191.562 131.355 200.79 112.516C194.757 103.367 184.41 97.3243 172.618 97.3243Z" fill="#F49013"/>
<path d="M206.063 148.26C206.228 146.868 206.346 145.462 206.346 144.029C206.346 125.41 191.255 110.322 172.618 110.322C164.64 110.322 157.314 113.111 151.54 117.749C141.855 103.471 125.512 94.0777 106.966 94.0777C81.8709 94.0777 60.7992 111.233 54.8174 134.451C50.1165 132.139 44.8441 130.803 39.2502 130.803C19.66 130.803 3.77979 146.68 3.77979 166.26C3.77979 185.84 19.66 201.706 39.2502 201.706C51.5848 201.706 195.701 201.706 201.923 201.706C216.779 201.706 228.839 189.661 228.839 174.799C228.839 161.352 218.95 150.256 206.063 148.26Z" fill="#44A6BB"/>
<path d="M206.063 148.26C206.228 146.868 206.346 145.462 206.346 144.029C206.346 125.41 191.255 110.322 172.618 110.322C169.092 110.322 165.693 110.893 162.493 111.908C176.112 116.239 185.991 128.978 185.991 144.029C185.991 145.462 185.874 146.868 185.708 148.26C198.595 150.256 208.485 161.352 208.485 174.799C208.485 189.661 196.423 201.706 181.563 201.706C192.907 201.706 200.587 201.706 201.923 201.706C216.779 201.706 228.839 189.661 228.839 174.799C228.839 161.352 218.95 150.256 206.063 148.26Z" fill="#388BA9"/>
<path d="M39.4531 130.812C42.2048 152.907 55.6814 160.55 55.6814 160.55C55.6814 160.55 51.905 149.313 54.8173 134.45C50.1684 132.171 44.9709 130.85 39.4531 130.812" fill="#388BA9"/>
<path d="M106.441 198.272C104.544 198.272 103.004 199.805 103.004 201.706C103.004 203.603 104.544 205.136 106.441 205.136H116.307C118.209 205.136 119.749 203.603 119.749 201.706C119.749 199.805 118.209 198.272 116.307 198.272H106.441ZM232.276 174.799C232.276 170.812 231.506 166.943 230.01 163.287C229.287 161.532 227.281 160.692 225.525 161.409C223.765 162.146 222.93 164.151 223.646 165.906C224.803 168.727 225.394 171.718 225.394 174.799C225.394 187.736 214.867 198.272 201.923 198.272H129.133C127.23 198.272 125.692 199.805 125.692 201.706C125.692 203.603 127.23 205.136 129.133 205.136H201.923C218.658 205.136 232.276 191.525 232.276 174.799V174.799ZM39.2502 205.136H94.4847C96.382 205.136 97.9204 203.603 97.9204 201.706C97.9204 199.805 96.382 198.272 94.4847 198.272H39.2502C21.5815 198.272 7.22144 183.905 7.22144 166.26C7.22144 148.605 21.5815 134.248 39.2502 134.248C43.2852 134.248 47.2126 135.05 50.9709 136.545C48.8416 150.724 52.264 161.178 52.415 161.645C52.9008 163.089 54.2422 163.981 55.6766 163.981C56.0355 163.981 56.3993 163.934 56.763 163.807C58.5612 163.216 59.534 161.273 58.943 159.466C58.9056 159.362 55.5256 148.863 58.1793 135.215C63.9279 113.016 83.9809 97.5176 106.97 97.5176C123.681 97.5176 139.282 105.797 148.685 119.669C149.227 120.471 150.078 120.999 151.022 121.14C151.98 121.283 152.948 121.028 153.689 120.424C159.132 116.059 165.67 113.757 172.618 113.757C189.329 113.757 202.914 127.335 202.914 144.029C202.914 145.17 202.829 146.387 202.641 147.836C202.419 149.675 203.693 151.375 205.534 151.657C209.249 152.233 212.827 153.724 215.872 155.959C217.392 157.083 219.554 156.763 220.673 155.234C221.806 153.709 221.476 151.548 219.941 150.43C216.887 148.175 213.418 146.514 209.759 145.538C209.783 145.019 209.793 144.524 209.793 144.029C209.793 134.728 206.323 126.226 200.648 119.707C206.747 110.077 210.004 99.0455 210.004 87.5711C210.004 85.6797 208.461 84.1421 206.559 84.1421C204.67 84.1421 203.127 85.6797 203.127 87.5711C203.127 97.2724 200.531 106.638 195.584 114.88C189.257 109.893 181.295 106.883 172.618 106.883C165.41 106.883 158.329 109.015 152.31 112.945C141.476 98.9235 124.785 90.6378 106.97 90.6378C103.439 90.6378 99.988 91.0013 96.6128 91.6149C96.5089 90.2561 96.4485 88.907 96.4485 87.5711C96.4485 58.1775 120.376 34.2673 149.785 34.2673C167.18 34.2673 183.522 42.7741 193.521 57.0361C194.606 58.593 196.755 58.971 198.298 57.8803C199.855 56.7957 200.232 54.653 199.147 53.0961C187.865 37.0031 169.422 27.3924 149.785 27.3924C116.586 27.3924 89.5748 54.3897 89.5748 87.5711C89.5748 89.4541 89.698 91.3601 89.8817 93.266C72.5574 98.6686 58.4995 112.077 52.618 129.765C48.322 128.176 43.8375 127.373 39.2502 127.373C17.7954 127.373 0.338135 144.816 0.338135 166.26C0.338135 187.704 17.7954 205.136 39.2502 205.136V205.136ZM224.203 126.548L212.247 119.659C210.608 118.702 208.508 119.268 207.55 120.905C206.606 122.556 207.173 124.655 208.815 125.604L220.758 132.502C221.301 132.808 221.89 132.959 222.481 132.959C223.67 132.959 224.817 132.351 225.455 131.242C226.409 129.6 225.842 127.501 224.203 126.548V126.548ZM65.8445 84.1421C63.952 84.1421 62.4137 85.6797 62.4137 87.5711C62.4137 89.4735 63.952 91.011 65.8445 91.011H79.6474C81.5507 91.011 83.0891 89.4735 83.0891 87.5711C83.0891 85.6797 81.5507 84.1421 79.6474 84.1421H65.8445ZM233.725 84.1421H219.931C218.029 84.1421 216.495 85.6797 216.495 87.5711C216.495 89.4735 218.029 91.011 219.931 91.011H233.725C235.628 91.011 237.161 89.4735 237.161 87.5711C237.161 85.6797 235.628 84.1421 233.725 84.1421ZM183.145 29.8407C183.678 30.1523 184.269 30.3033 184.859 30.3033C186.048 30.3033 187.204 29.6861 187.842 28.5821L194.734 16.6403C195.678 14.9977 195.126 12.8937 193.474 11.9407C191.83 11.0022 189.73 11.559 188.776 13.2053L181.885 25.1471C180.926 26.7885 181.493 28.8925 183.145 29.8407V29.8407ZM225.455 43.9058C224.51 42.2692 222.41 41.7028 220.758 42.6509L208.815 49.5488C207.173 50.4969 206.606 52.6009 207.55 54.2436C208.186 55.3427 209.344 55.9599 210.538 55.9599C211.113 55.9599 211.704 55.8138 212.247 55.5034L224.203 48.6055C225.842 47.6525 226.409 45.552 225.455 43.9058V43.9058ZM89.0419 55.9599C90.2262 55.9599 91.3826 55.3427 92.0243 54.2436C92.9741 52.6009 92.4074 50.4969 90.7651 49.5488L78.8172 42.6509C77.1701 41.7028 75.0638 42.2692 74.12 43.9058C73.1713 45.552 73.7333 47.6525 75.3755 48.6055L87.3283 55.5034C87.8709 55.8138 88.4558 55.9599 89.0419 55.9599ZM106.102 11.9407C104.454 12.8937 103.897 14.9977 104.846 16.6403L111.743 28.5821C112.379 29.6861 113.536 30.3033 114.721 30.3033C115.306 30.3033 115.896 30.1523 116.44 29.8407C118.082 28.8925 118.649 26.7885 117.695 25.1471L110.799 13.2053C109.849 11.559 107.739 10.9925 106.102 11.9407V11.9407ZM146.349 3.67913V17.4701C146.349 19.3676 147.882 20.9052 149.785 20.9052C151.683 20.9052 153.231 19.3676 153.231 17.4701V3.67913C153.231 1.78284 151.683 0.24533 149.785 0.24533C147.882 0.24533 146.349 1.78284 146.349 3.67913ZM149.785 42.1931C147.882 42.1931 146.349 43.7307 146.349 45.633C146.349 47.5293 147.882 49.0632 149.785 49.0632C163.498 49.0632 176.291 56.4467 183.168 68.3269C183.806 69.4212 184.962 70.0395 186.142 70.0395C186.733 70.0395 187.323 69.8885 187.865 69.5721C189.507 68.6239 190.074 66.5248 189.116 64.8773C181.021 50.8834 165.952 42.1931 149.785 42.1931V42.1931ZM205.496 64.684C206.478 67.067 207.304 69.5298 207.965 72.0119C208.461 73.8418 207.361 75.7247 205.534 76.2151C205.237 76.2948 204.944 76.3335 204.647 76.3335C203.127 76.3335 201.735 75.3189 201.319 73.7802C200.742 71.5867 199.997 69.4066 199.138 67.3026C198.416 65.5476 199.256 63.5426 201.002 62.8155C202.758 62.0896 204.764 62.9339 205.496 64.684" fill="#142B3D"/>
</svg>
