<svg width="224" height="223" viewBox="0 0 224 223" fill="none" xmlns="http://www.w3.org/2000/svg">
<path d="M111.975 38.3847C71.6088 38.3847 38.8816 71.0926 38.8816 111.446C38.8816 151.787 71.6088 184.495 111.975 184.495C152.344 184.495 185.066 151.787 185.066 111.446C185.066 71.0926 152.344 38.3847 111.975 38.3847Z" fill="#F5B90B"/>
<path d="M111.975 38.3847C109.085 38.3847 106.238 38.5657 103.43 38.9039C139.773 43.1313 167.983 73.9793 167.983 111.446C167.983 148.901 139.773 179.749 103.43 183.981C106.238 184.307 109.085 184.495 111.975 184.495C152.344 184.495 185.066 151.787 185.066 111.446C185.066 71.0926 152.344 38.3847 111.975 38.3847Z" fill="#F49013"/>
<path d="M63.8483 187.879L54.9699 203.254C54.0212 204.902 54.5868 207.001 56.2254 207.949C56.768 208.261 57.3577 208.412 57.9438 208.412C59.1281 208.412 60.2846 207.793 60.9215 206.694L69.8012 191.317C70.7546 189.671 70.1927 187.572 68.5456 186.624C66.9081 185.676 64.8018 186.231 63.8483 187.879ZM32.0565 153.587L16.6717 162.465C15.0294 163.419 14.4675 165.521 15.4161 167.163C16.0542 168.262 17.2107 168.878 18.395 168.878C18.9798 168.878 19.5708 168.733 20.1134 168.419L35.4969 159.542C37.1404 158.588 37.7072 156.486 36.7525 154.843C35.8039 153.201 33.6987 152.645 32.0565 153.587ZM191.892 153.587C190.255 152.645 188.149 153.201 187.196 154.843C186.247 156.486 186.813 158.588 188.456 159.542L203.835 168.419C204.378 168.733 204.969 168.878 205.553 168.878C206.739 168.878 207.895 168.262 208.532 167.163C209.486 165.521 208.924 163.419 207.277 162.465L191.892 153.587ZM163.027 206.694C163.664 207.793 164.82 208.412 166.009 208.412C166.591 208.412 167.18 208.261 167.723 207.949C169.371 207.001 169.933 204.902 168.983 203.254L160.1 187.879C159.151 186.231 157.045 185.676 155.403 186.624C153.761 187.572 153.199 189.671 154.147 191.317L163.027 206.694ZM3.91775 114.876H21.6807C23.578 114.876 25.1175 113.343 25.1175 111.446C25.1175 109.538 23.578 108.004 21.6807 108.004H3.91775C2.01444 108.004 0.476074 109.538 0.476074 111.446C0.476074 113.343 2.01444 114.876 3.91775 114.876ZM198.832 111.446C198.832 113.343 200.375 114.876 202.273 114.876H220.036C221.934 114.876 223.472 113.343 223.472 111.446C223.472 109.538 221.934 108.004 220.036 108.004H202.273C200.375 108.004 198.832 109.538 198.832 111.446ZM108.538 201.693V219.443C108.538 221.344 110.076 222.881 111.975 222.881C113.877 222.881 115.415 221.344 115.415 219.443V201.693C115.415 199.791 113.877 198.254 111.975 198.254C110.076 198.254 108.538 199.791 108.538 201.693ZM155.403 36.2591C155.945 36.5731 156.536 36.7181 157.121 36.7181C158.306 36.7181 159.462 36.102 160.1 35.0029L168.983 19.6273C169.933 17.9846 169.371 15.883 167.723 14.9288C166.086 13.9867 163.98 14.5424 163.027 16.185L154.147 31.5606C153.199 33.2153 153.761 35.3049 155.403 36.2591ZM190.178 69.7521C190.76 69.7521 191.349 69.595 191.892 69.2931L207.277 60.4156C208.924 59.4614 209.486 57.3719 208.532 55.7171C207.584 54.0745 205.479 53.5068 203.835 54.461L188.456 63.3384C186.813 64.2926 186.247 66.3822 187.196 68.0369C187.833 69.136 188.989 69.7521 190.178 69.7521ZM16.6717 60.4156L32.0565 69.2931C32.5991 69.595 33.1888 69.7521 33.7749 69.7521C34.9592 69.7521 36.1157 69.136 36.7525 68.0369C37.7072 66.3822 37.1404 64.2926 35.4969 63.3384L20.1134 54.461C18.4711 53.5068 16.3648 54.0745 15.4161 55.7171C14.4675 57.3719 15.0294 59.4614 16.6717 60.4156ZM63.8483 35.0029C64.4864 36.102 65.6429 36.7181 66.8272 36.7181C67.4133 36.7181 68.003 36.5731 68.5456 36.2591C70.1927 35.3049 70.7546 33.2153 69.8012 31.5606L60.9215 16.185C59.9729 14.5424 57.8726 13.9867 56.2254 14.9288C54.5868 15.883 54.0212 17.9846 54.9699 19.6273L63.8483 35.0029ZM111.975 24.6277C113.877 24.6277 115.415 23.0938 115.415 21.1854V3.4424C115.415 1.53403 113.877 0.00012207 111.975 0.00012207C110.076 0.00012207 108.538 1.53403 108.538 3.4424V21.1854C108.538 23.0938 110.076 24.6277 111.975 24.6277ZM108.538 57.4323C108.538 59.3286 110.076 60.8746 111.975 60.8746C129.978 60.8746 146.773 70.5613 155.799 86.1543C156.437 87.2655 157.594 87.8695 158.778 87.8695C159.363 87.8695 159.954 87.7245 160.496 87.4105C162.144 86.4563 162.701 84.3547 161.752 82.712C151.5 65.0053 132.428 54.002 111.975 54.002C110.076 54.002 108.538 55.536 108.538 57.4323ZM65.1233 130.554C62.6399 124.491 61.3843 118.053 61.3843 111.446C61.3843 109.538 59.8459 108.004 57.9487 108.004C56.0502 108.004 54.5119 109.538 54.5119 111.446C54.5119 118.947 55.9366 126.266 58.7596 133.151C59.3034 134.492 60.5867 135.289 61.9414 135.289C62.3765 135.289 62.82 135.204 63.2393 135.035C65 134.323 65.8459 132.317 65.1233 130.554ZM66.2048 146.171C66.8743 147.065 67.9039 147.536 68.942 147.536C69.6694 147.536 70.4005 147.307 71.0193 146.835C72.5347 145.676 72.8223 143.526 71.6803 142.016C71.1558 141.328 70.641 140.627 70.1504 139.903C69.0833 138.332 66.9408 137.934 65.3782 138.997C63.806 140.072 63.4 142.21 64.4767 143.78C65.029 144.589 65.609 145.386 66.2048 146.171ZM124.054 42.8659C157.414 48.6997 181.63 77.5426 181.63 111.446C181.63 120.348 179.968 129.02 176.692 137.233C175.989 138.997 176.848 140.99 178.609 141.69C179.029 141.859 179.458 141.944 179.888 141.944C181.258 141.944 182.546 141.122 183.084 139.782C186.686 130.759 188.508 121.23 188.508 111.446C188.508 74.1848 161.903 42.4914 125.239 36.09C123.369 35.7639 121.59 37.0199 121.264 38.8921C120.934 40.7642 122.185 42.5397 124.054 42.8659ZM163.744 163.129C162.455 161.728 160.284 161.631 158.882 162.9C146.033 174.616 129.379 181.053 111.975 181.053C73.5679 181.053 42.3234 149.831 42.3234 111.446C42.3234 73.0495 73.5679 41.815 111.975 41.815C113.877 41.815 115.415 40.2812 115.415 38.3849C115.415 36.4886 113.877 34.9426 111.975 34.9426C69.7733 34.9426 35.445 69.2569 35.445 111.446C35.445 153.611 69.7733 187.935 111.975 187.935C131.092 187.935 149.398 180.848 163.513 167.985C164.915 166.704 165.014 164.53 163.744 163.129ZM169.461 160.001C168.715 160.001 167.97 159.759 167.336 159.264C165.845 158.092 165.585 155.93 166.756 154.445C167.936 152.935 169.078 151.365 170.14 149.758C171.184 148.176 173.317 147.741 174.899 148.792C176.484 149.831 176.919 151.969 175.875 153.551C174.71 155.314 173.458 157.042 172.16 158.696C171.486 159.554 170.476 160.001 169.461 160.001Z" fill="#142B3D"/>
</svg>
